<?xml version="1.0" encoding="UTF-8"?>
<svg version="1.1" xmlns="http://www.w3.org/2000/svg" width="281" height="281">
<path d="M0 0 C0.72711182 0.00182281 1.45422363 0.00364563 2.20336914 0.00552368 C13.00953217 0.05111868 23.24815182 0.55883068 33.75 3.3125 C34.75111816 3.55395752 34.75111816 3.55395752 35.77246094 3.80029297 C70.69565445 12.2746623 101.4056742 35.55224218 120.34423828 65.90722656 C134.28321847 88.88563834 140.97819368 113.36979712 141 140.1875 C141.00067474 140.92926483 141.00134949 141.67102966 141.00204468 142.43527222 C140.98624559 153.35008076 140.59412579 163.71270588 137.75 174.3125 C137.57839355 174.96347656 137.40678711 175.61445313 137.22998047 176.28515625 C130.39277311 201.65431171 117.51793991 222.14268594 99.75 241.3125 C99.22277344 241.90546875 98.69554687 242.4984375 98.15234375 243.109375 C82.84336977 259.55379718 59.97096234 271.00721775 38.6875 277.0625 C37.64456787 277.36075684 37.64456787 277.36075684 36.58056641 277.66503906 C24.65387636 280.874483 12.78630281 281.68905057 0.5 281.625 C-0.22677948 281.62317719 -0.95355896 281.62135437 -1.70236206 281.61947632 C-39.17250239 281.46129185 -73.66844697 266.73966752 -100.25 240.3125 C-100.72034668 239.84618164 -101.19069336 239.37986328 -101.67529297 238.89941406 C-127.61702722 212.8054501 -140.47038448 177.85907028 -140.5 141.4375 C-140.50067474 140.69573517 -140.50134949 139.95397034 -140.50204468 139.18972778 C-140.44371644 98.89363475 -123.68107874 65.17863608 -95.73828125 36.7578125 C-69.90254693 11.99032447 -35.41736257 -0.18461295 0 0 Z " fill="#F4F4F4" transform="translate(140.25,-0.3125)"/>
<path d="M0 0 C3.238452 0.12804423 4.65769397 0.67937554 7.03515625 2.90625 C10.87868035 7.82359104 14.6054608 12.78884621 18.19995117 17.890625 C19.20284202 19.31274496 20.21362004 20.72933131 21.23168945 22.140625 C24.05708127 26.08803726 26.63783491 30.05838887 29.03515625 34.28125 C34.21304443 43.43896146 34.21304443 43.43896146 42.77246094 48.85888672 C48.97190024 49.71442931 55.11152264 49.38185993 61.34130859 49.04931641 C69.60958532 48.89594709 76.80183845 52.71120641 82.96484375 57.95703125 C90.72127365 65.74323631 94.87971901 74.33829791 95.5 85.3125 C95.13325476 95.69872519 90.7065059 104.46841353 83.54296875 111.8359375 C76.98563559 117.41621794 69.85115629 121.05915858 61.20654297 121.19287109 C60.25810516 121.20893402 59.30966736 121.22499695 58.33248901 121.24154663 C53.99250236 121.28633383 49.65266424 121.32707786 45.3125 121.35009766 C43.03147148 121.36662215 40.75049399 121.39386539 38.46972656 121.43212891 C35.16444292 121.48723294 31.86037025 121.5088254 28.5546875 121.5234375 C27.54703339 121.54610687 26.53937927 121.56877625 25.50119019 121.59213257 C17.64440945 121.5689847 10.98506207 119.64845525 5.08224487 114.24423218 C-1.17792835 107.57424823 -2.44683788 100.89797195 -2.37231445 92.05737305 C-2.37596512 91.08420639 -2.37961578 90.11103973 -2.38337708 89.10838318 C-2.39144773 85.90931458 -2.37790618 82.71075784 -2.36328125 79.51171875 C-2.36276244 77.28448995 -2.36328096 75.05726069 -2.36479187 72.83003235 C-2.36470232 68.17234423 -2.35430322 63.51482982 -2.33618164 58.85717773 C-2.31342917 52.8769517 -2.31296408 46.89697786 -2.31969929 40.91672039 C-2.32303348 36.32291914 -2.31642066 31.7291758 -2.30657005 27.13538551 C-2.30271321 24.92929194 -2.30157183 22.72319194 -2.3031559 20.51709557 C-2.30352513 17.44315573 -2.2909485 14.36954488 -2.2746582 11.2956543 C-2.27713562 10.37876831 -2.27961304 9.46188232 -2.28216553 8.51721191 C-2.22874831 2.22874831 -2.22874831 2.22874831 0 0 Z " fill="#F3F3F3" transform="translate(100,68)"/>
<path d="M0 0 C3.238452 0.12804423 4.65769397 0.67937554 7.03515625 2.90625 C10.87868035 7.82359104 14.6054608 12.78884621 18.19995117 17.890625 C19.20284202 19.31274496 20.21362004 20.72933131 21.23168945 22.140625 C24.05708127 26.08803726 26.63783491 30.05838887 29.03515625 34.28125 C34.21304443 43.43896146 34.21304443 43.43896146 42.77246094 48.85888672 C48.97190024 49.71442931 55.11152264 49.38185993 61.34130859 49.04931641 C69.60958532 48.89594709 76.80183845 52.71120641 82.96484375 57.95703125 C90.72127365 65.74323631 94.87971901 74.33829791 95.5 85.3125 C95.13325476 95.69872519 90.7065059 104.46841353 83.54296875 111.8359375 C76.98563559 117.41621794 69.85115629 121.05915858 61.20654297 121.19287109 C60.25810516 121.20893402 59.30966736 121.22499695 58.33248901 121.24154663 C53.99250236 121.28633383 49.65266424 121.32707786 45.3125 121.35009766 C43.03147148 121.36662215 40.75049399 121.39386539 38.46972656 121.43212891 C35.16444292 121.48723294 31.86037025 121.5088254 28.5546875 121.5234375 C27.54703339 121.54610687 26.53937927 121.56877625 25.50119019 121.59213257 C17.64440945 121.5689847 10.98506207 119.64845525 5.08224487 114.24423218 C-1.17792835 107.57424823 -2.44683788 100.89797195 -2.37231445 92.05737305 C-2.37596512 91.08420639 -2.37961578 90.11103973 -2.38337708 89.10838318 C-2.39144773 85.90931458 -2.37790618 82.71075784 -2.36328125 79.51171875 C-2.36276244 77.28448995 -2.36328096 75.05726069 -2.36479187 72.83003235 C-2.36470232 68.17234423 -2.35430322 63.51482982 -2.33618164 58.85717773 C-2.31342917 52.8769517 -2.31296408 46.89697786 -2.31969929 40.91672039 C-2.32303348 36.32291914 -2.31642066 31.7291758 -2.30657005 27.13538551 C-2.30271321 24.92929194 -2.30157183 22.72319194 -2.3031559 20.51709557 C-2.30352513 17.44315573 -2.2909485 14.36954488 -2.2746582 11.2956543 C-2.27713562 10.37876831 -2.27961304 9.46188232 -2.28216553 8.51721191 C-2.22874831 2.22874831 -2.22874831 2.22874831 0 0 Z M7 19 C6.90719924 29.57050148 6.83618381 40.14090557 6.79275131 50.71173191 C6.77190273 55.62054934 6.74363497 60.52908745 6.69824219 65.43774414 C6.65468706 70.17750216 6.63084237 74.91699199 6.62049103 79.65693474 C6.61311699 81.46260739 6.59871713 83.26826586 6.57707977 85.07382393 C6.5479168 87.60886133 6.5440493 90.14279957 6.54589844 92.67797852 C6.53151733 93.41957214 6.51713623 94.16116577 6.50231934 94.92523193 C6.54605732 100.48992928 7.94555787 103.5164886 11 108 C16.14982728 112.8133745 21.12449141 112.57160124 27.8046875 112.49609375 C28.84263458 112.49754898 29.88058167 112.49900421 30.94998169 112.50050354 C33.14034843 112.49884746 35.33072716 112.48731892 37.52099609 112.46655273 C40.85695386 112.43765632 44.19131515 112.44593955 47.52734375 112.45898438 C49.66146599 112.45274449 51.79558325 112.44435159 53.9296875 112.43359375 C54.9195163 112.43652939 55.90934509 112.43946503 56.9291687 112.44248962 C65.96731669 112.32066358 72.51337925 110.1955027 79.23828125 103.97265625 C84.90347735 97.62914398 86.36132528 90.42841604 86.28125 82.140625 C85.63545174 74.92921105 82.13449785 69.0203979 77 64 C70.94932056 60.06225624 66.03752791 57.89064078 58.7578125 57.859375 C57.52675781 57.84003906 56.29570312 57.82070312 55.02734375 57.80078125 C52.43374928 57.76703077 49.83990649 57.74870585 47.24609375 57.74609375 C46.01246094 57.72160156 44.77882812 57.69710937 43.5078125 57.671875 C41.81615967 57.65785645 41.81615967 57.65785645 40.09033203 57.64355469 C33.95783567 56.36647613 30.9052716 50.69300056 27.5 45.8125 C26.63588967 44.58560422 25.77127903 43.35906071 24.90625 42.1328125 C24.44476563 41.47571289 23.98328125 40.81861328 23.5078125 40.14160156 C20.69211809 36.14236721 17.84915948 32.16293318 15 28.1875 C14.15405273 26.9950769 14.15405273 26.9950769 13.29101562 25.77856445 C12.49727539 24.67194458 12.49727539 24.67194458 11.6875 23.54296875 C11.21699219 22.88321045 10.74648437 22.22345215 10.26171875 21.54370117 C9.06136014 19.86004686 9.06136014 19.86004686 7 19 Z " fill="#090909" transform="translate(100,68)"/>
<path d="M0 0 C2.5625 0.3125 2.5625 0.3125 4.4375 1.4375 C6.11540631 4.23401052 5.31125648 6.24940532 4.5625 9.3125 C-1.84944487 10.64328101 -1.84944487 10.64328101 -4.4375 9.1875 C-5.4375 7.3125 -5.4375 7.3125 -5.25 4.75 C-4.18108204 1.54324612 -3.41484064 0.43780008 0 0 Z " fill="#0B0B0B" transform="translate(165.4375,146.6875)"/>
<path d="M0 0 C3 0.25 3 0.25 5 2.25 C5.25 5.25 5.25 5.25 5 8.25 C3 10.25 3 10.25 0 10.5625 C-0.99 10.459375 -1.98 10.35625 -3 10.25 C-5.14915785 7.02626323 -5.38286803 5.98296326 -5 2.25 C-3 0.25 -3 0.25 0 0 Z " fill="#090909" transform="translate(127,146.75)"/>
<path d="M0 0 C3 -0.3125 3 -0.3125 6 0 C8 2 8 2 8.25 5 C8 8 8 8 6 10 C2.375 9.625 2.375 9.625 -1 9 C-1.625 6.1875 -1.625 6.1875 -2 3 C-1.34 2.01 -0.68 1.02 0 0 Z " fill="#080808" transform="translate(143,147)"/>
</svg>
