<svg width="33" height="42" viewBox="0 0 33 42" fill="none" xmlns="http://www.w3.org/2000/svg">
<path d="M20.7133 16.7913H14.444L2.63387 0.599015C2.26197 0.0893662 1.60411 -0.123672 1.00507 0.0717132C0.404855 0.267098 0 0.826181 0 1.45706V32.6386C0 37.3561 3.83784 41.1944 8.55482 41.1944H20.7133C27.4416 41.1944 32.9141 35.7201 32.9141 28.9922C32.9141 22.2644 27.4404 16.7901 20.7133 16.7901V16.7913ZM20.7133 38.2813H8.55482C5.4443 38.2813 2.91396 35.7507 2.91396 32.6398V5.92856L12.5256 19.1076C12.7998 19.4843 13.2376 19.7067 13.7025 19.7067H20.7121C25.8328 19.7067 29.999 23.8734 29.999 28.9946C29.999 34.1158 25.8328 38.2825 20.7121 38.2825L20.7133 38.2813Z" fill="black"/>
<path d="M16.9164 30.3261C17.8722 30.0709 18.4402 29.0891 18.1849 28.1332C17.9297 27.1773 16.948 26.6093 15.9922 26.8646C15.0364 27.1198 14.4685 28.1016 14.7238 29.0575C14.979 30.0134 15.9606 30.5814 16.9164 30.3261Z" fill="black"/>
<path d="M24.252 29.8761C24.9511 29.1769 24.9511 28.0434 24.2521 27.3442C23.553 26.6451 22.4196 26.6451 21.7205 27.3443C21.0215 28.0434 21.0215 29.1769 21.7205 29.876C22.4196 30.5752 23.553 30.5752 24.252 29.8761Z" fill="black"/>
<path d="M10.7491 30.1988C11.6273 29.7447 11.9711 28.6646 11.5171 27.7863C11.063 26.908 9.98305 26.5641 9.10486 27.0182C8.22668 27.4723 7.88285 28.5524 8.33689 29.4307C8.79093 30.309 9.87091 30.6528 10.7491 30.1988Z" fill="black"/>
</svg>
